<?xml version="1.0" encoding="UTF-8" standalone="no"?>
<!DOCTYPE svg PUBLIC "-//W3C//DTD SVG 1.1//EN"
 "http://www.w3.org/Graphics/SVG/1.1/DTD/svg11.dtd">
<!-- Generated by graphviz version 13.0.1 (20250615.1724)
 -->
<!-- Title: whiteboard Pages: 1 -->
<svg width="1440pt" height="630pt"
 viewBox="0.00 0.00 1440.00 630.00" xmlns="http://www.w3.org/2000/svg" xmlns:xlink="http://www.w3.org/1999/xlink">
<g id="graph0" class="graph" transform="scale(1 1) rotate(0) translate(28.8 601.2)">
<title>whiteboard</title>
<polygon fill="#f2f2f2" stroke="none" points="-28.8,28.8 -28.8,-601.2 1411.2,-601.2 1411.2,28.8 -28.8,28.8"/>
<!-- tool2 -->
<g id="node1" class="node">
<title>tool2</title>
<path fill="white" stroke="#222222" d="M99.6,-483.2C99.6,-483.2 12,-483.2 12,-483.2 6,-483.2 0,-477.2 0,-471.2 0,-471.2 0,-441.2 0,-441.2 0,-435.2 6,-429.2 12,-429.2 12,-429.2 99.6,-429.2 99.6,-429.2 105.6,-429.2 111.6,-435.2 111.6,-441.2 111.6,-441.2 111.6,-471.2 111.6,-471.2 111.6,-477.2 105.6,-483.2 99.6,-483.2"/>
<text xml:space="preserve" text-anchor="middle" x="55.8" y="-463.75" font-family="Helvetica,sans-Serif" font-size="11.00">Tool 2</text>
<text xml:space="preserve" text-anchor="middle" x="55.8" y="-451.75" font-family="Helvetica,sans-Serif" font-size="11.00">(extracts DB field</text>
<text xml:space="preserve" text-anchor="middle" x="55.8" y="-439.75" font-family="Helvetica,sans-Serif" font-size="11.00">mappings)</text>
</g>
<!-- art1 -->
<g id="node5" class="node">
<title>art1</title>
<path fill="white" stroke="#222222" d="M316.4,-472.4C316.4,-472.4 255.2,-472.4 255.2,-472.4 249.8,-472.4 244.4,-467 244.4,-461.6 244.4,-461.6 244.4,-450.8 244.4,-450.8 244.4,-445.4 249.8,-440 255.2,-440 255.2,-440 316.4,-440 316.4,-440 321.8,-440 327.2,-445.4 327.2,-450.8 327.2,-450.8 327.2,-461.6 327.2,-461.6 327.2,-467 321.8,-472.4 316.4,-472.4"/>
<text xml:space="preserve" text-anchor="middle" x="285.8" y="-451.75" font-family="Helvetica,sans-Serif" font-size="11.00">Artifact 1</text>
</g>
<!-- tool2&#45;&gt;art1 -->
<g id="edge3" class="edge">
<title>tool2&#45;&gt;art1</title>
<path fill="none" stroke="#222222" stroke-dasharray="5,2" d="M112.06,-456C112.06,-456 234.67,-456 234.67,-456"/>
<polygon fill="#222222" stroke="#222222" points="234.67,-458.8 242.67,-456 234.67,-453.2 234.67,-458.8"/>
</g>
<!-- code -->
<g id="node8" class="node">
<title>code</title>
<path fill="white" stroke="#222222" d="M305.6,-172.4C305.6,-172.4 266,-172.4 266,-172.4 260.6,-172.4 255.2,-167 255.2,-161.6 255.2,-161.6 255.2,-150.8 255.2,-150.8 255.2,-145.4 260.6,-140 266,-140 266,-140 305.6,-140 305.6,-140 311,-140 316.4,-145.4 316.4,-150.8 316.4,-150.8 316.4,-161.6 316.4,-161.6 316.4,-167 311,-172.4 305.6,-172.4"/>
<text xml:space="preserve" text-anchor="middle" x="285.8" y="-151.75" font-family="Helvetica,sans-Serif" font-size="11.00">Code</text>
</g>
<!-- tool2&#45;&gt;code -->
<g id="edge9" class="edge">
<title>tool2&#45;&gt;code</title>
<path fill="none" stroke="#222222" stroke-dasharray="5,2" d="M111.89,-435C144.02,-435 178,-435 178,-435 178,-435 178,-162 178,-162 178,-162 245.4,-162 245.4,-162"/>
<polygon fill="#222222" stroke="#222222" points="245.4,-164.8 253.4,-162 245.4,-159.2 245.4,-164.8"/>
</g>
<!-- tool1 -->
<g id="node2" class="node">
<title>tool1</title>
<path fill="white" stroke="#222222" d="M99.6,-273.2C99.6,-273.2 12,-273.2 12,-273.2 6,-273.2 0,-267.2 0,-261.2 0,-261.2 0,-231.2 0,-231.2 0,-225.2 6,-219.2 12,-219.2 12,-219.2 99.6,-219.2 99.6,-219.2 105.6,-219.2 111.6,-225.2 111.6,-231.2 111.6,-231.2 111.6,-261.2 111.6,-261.2 111.6,-267.2 105.6,-273.2 99.6,-273.2"/>
<text xml:space="preserve" text-anchor="middle" x="55.8" y="-247.75" font-family="Helvetica,sans-Serif" font-size="11.00">Tool 1 (extracts </text>
<text xml:space="preserve" text-anchor="middle" x="55.8" y="-235.75" font-family="Helvetica,sans-Serif" font-size="11.00"> &#160;out CFG)</text>
</g>
<!-- art2 -->
<g id="node6" class="node">
<title>art2</title>
<path fill="white" stroke="#222222" d="M316.4,-367.4C316.4,-367.4 255.2,-367.4 255.2,-367.4 249.8,-367.4 244.4,-362 244.4,-356.6 244.4,-356.6 244.4,-345.8 244.4,-345.8 244.4,-340.4 249.8,-335 255.2,-335 255.2,-335 316.4,-335 316.4,-335 321.8,-335 327.2,-340.4 327.2,-345.8 327.2,-345.8 327.2,-356.6 327.2,-356.6 327.2,-362 321.8,-367.4 316.4,-367.4"/>
<text xml:space="preserve" text-anchor="middle" x="285.8" y="-346.75" font-family="Helvetica,sans-Serif" font-size="11.00">Artifact 2</text>
</g>
<!-- tool1&#45;&gt;art2 -->
<g id="edge2" class="edge">
<title>tool1&#45;&gt;art2</title>
<path fill="none" stroke="#222222" stroke-dasharray="5,2" d="M111.91,-264C169.21,-264 249.8,-264 249.8,-264 249.8,-264 249.8,-325.28 249.8,-325.28"/>
<polygon fill="#222222" stroke="#222222" points="247,-325.28 249.8,-333.28 252.6,-325.28 247,-325.28"/>
</g>
<!-- tool1&#45;&gt;code -->
<g id="edge8" class="edge">
<title>tool1&#45;&gt;code</title>
<path fill="none" stroke="#222222" stroke-dasharray="5,2" d="M111.83,-255C176.95,-255 275.6,-255 275.6,-255 275.6,-255 275.6,-182.03 275.6,-182.03"/>
<polygon fill="#222222" stroke="#222222" points="278.4,-182.03 275.6,-174.03 272.8,-182.03 278.4,-182.03"/>
</g>
<!-- tool3 -->
<g id="node3" class="node">
<title>tool3</title>
<path fill="white" stroke="#222222" d="M99.6,-128.52C99.6,-128.52 12,-128.52 12,-128.52 6,-128.52 0,-122.52 0,-116.52 0,-116.52 0,-95.88 0,-95.88 0,-89.88 6,-83.88 12,-83.88 12,-83.88 99.6,-83.88 99.6,-83.88 105.6,-83.88 111.6,-89.88 111.6,-95.88 111.6,-95.88 111.6,-116.52 111.6,-116.52 111.6,-122.52 105.6,-128.52 99.6,-128.52"/>
<text xml:space="preserve" text-anchor="middle" x="55.8" y="-107.75" font-family="Helvetica,sans-Serif" font-size="11.00">Tool 3 (extracts</text>
<text xml:space="preserve" text-anchor="middle" x="55.8" y="-95.75" font-family="Helvetica,sans-Serif" font-size="11.00">glossary)</text>
</g>
<!-- art3 -->
<g id="node7" class="node">
<title>art3</title>
<path fill="white" stroke="#222222" d="M316.4,-122.4C316.4,-122.4 255.2,-122.4 255.2,-122.4 249.8,-122.4 244.4,-117 244.4,-111.6 244.4,-111.6 244.4,-100.8 244.4,-100.8 244.4,-95.4 249.8,-90 255.2,-90 255.2,-90 316.4,-90 316.4,-90 321.8,-90 327.2,-95.4 327.2,-100.8 327.2,-100.8 327.2,-111.6 327.2,-111.6 327.2,-117 321.8,-122.4 316.4,-122.4"/>
<text xml:space="preserve" text-anchor="middle" x="285.8" y="-101.75" font-family="Helvetica,sans-Serif" font-size="11.00">Artifact 3</text>
</g>
<!-- tool3&#45;&gt;art3 -->
<g id="edge1" class="edge">
<title>tool3&#45;&gt;art3</title>
<path fill="none" stroke="#222222" stroke-dasharray="5,2" d="M112.06,-106C112.06,-106 234.67,-106 234.67,-106"/>
<polygon fill="#222222" stroke="#222222" points="234.67,-108.8 242.67,-106 234.67,-103.2 234.67,-108.8"/>
</g>
<!-- tool3&#45;&gt;code -->
<g id="edge10" class="edge">
<title>tool3&#45;&gt;code</title>
<path fill="none" stroke="#222222" stroke-dasharray="5,2" d="M55.8,-128.86C55.8,-139.97 55.8,-151 55.8,-151 55.8,-151 245.27,-151 245.27,-151"/>
<polygon fill="#222222" stroke="#222222" points="245.27,-153.8 253.27,-151 245.27,-148.2 245.27,-153.8"/>
</g>
<!-- screenshots -->
<g id="node4" class="node">
<title>screenshots</title>
<path fill="white" stroke="#222222" d="M316.4,-572.4C316.4,-572.4 255.2,-572.4 255.2,-572.4 249.8,-572.4 244.4,-567 244.4,-561.6 244.4,-561.6 244.4,-550.8 244.4,-550.8 244.4,-545.4 249.8,-540 255.2,-540 255.2,-540 316.4,-540 316.4,-540 321.8,-540 327.2,-545.4 327.2,-550.8 327.2,-550.8 327.2,-561.6 327.2,-561.6 327.2,-567 321.8,-572.4 316.4,-572.4"/>
<text xml:space="preserve" text-anchor="middle" x="285.8" y="-551.75" font-family="Helvetica,sans-Serif" font-size="11.00">Screenshots</text>
</g>
<!-- agent -->
<g id="node10" class="node">
<title>agent</title>
<path fill="white" stroke="#222222" d="M526,-276.8C526,-276.8 445.6,-276.8 445.6,-276.8 439.6,-276.8 433.6,-270.8 433.6,-264.8 433.6,-264.8 433.6,-227.6 433.6,-227.6 433.6,-221.6 439.6,-215.6 445.6,-215.6 445.6,-215.6 526,-215.6 526,-215.6 532,-215.6 538,-221.6 538,-227.6 538,-227.6 538,-264.8 538,-264.8 538,-270.8 532,-276.8 526,-276.8"/>
<text xml:space="preserve" text-anchor="middle" x="485.8" y="-253.75" font-family="Helvetica,sans-Serif" font-size="11.00">Agent (Claude /</text>
<text xml:space="preserve" text-anchor="middle" x="485.8" y="-241.75" font-family="Helvetica,sans-Serif" font-size="11.00">DeepAgents /</text>
<text xml:space="preserve" text-anchor="middle" x="485.8" y="-229.75" font-family="Helvetica,sans-Serif" font-size="11.00">custom)</text>
</g>
<!-- screenshots&#45;&gt;agent -->
<g id="edge4" class="edge">
<title>screenshots&#45;&gt;agent</title>
<path fill="none" stroke="#222222" stroke-dasharray="5,2" d="M327.24,-556C385.82,-556 485.8,-556 485.8,-556 485.8,-556 485.8,-286.55 485.8,-286.55"/>
<polygon fill="#222222" stroke="#222222" points="488.6,-286.55 485.8,-278.55 483,-286.55 488.6,-286.55"/>
</g>
<!-- art1&#45;&gt;agent -->
<g id="edge5" class="edge">
<title>art1&#45;&gt;agent</title>
<path fill="none" stroke="#222222" stroke-dasharray="5,2" d="M327.45,-456C378.9,-456 459.7,-456 459.7,-456 459.7,-456 459.7,-286.67 459.7,-286.67"/>
<polygon fill="#222222" stroke="#222222" points="462.5,-286.67 459.7,-278.67 456.9,-286.67 462.5,-286.67"/>
</g>
<!-- art2&#45;&gt;agent -->
<g id="edge6" class="edge">
<title>art2&#45;&gt;agent</title>
<path fill="none" stroke="#222222" stroke-dasharray="5,2" d="M323.6,-334.76C323.6,-305.18 323.6,-246 323.6,-246 323.6,-246 423.62,-246 423.62,-246"/>
<polygon fill="#222222" stroke="#222222" points="423.62,-248.8 431.62,-246 423.62,-243.2 423.62,-248.8"/>
</g>
<!-- art3&#45;&gt;agent -->
<g id="edge7" class="edge">
<title>art3&#45;&gt;agent</title>
<path fill="none" stroke="#222222" stroke-dasharray="5,2" d="M320,-122.88C320,-156.24 320,-228 320,-228 320,-228 423.83,-228 423.83,-228"/>
<polygon fill="#222222" stroke="#222222" points="423.83,-230.8 431.83,-228 423.83,-225.2 423.83,-230.8"/>
</g>
<!-- code&#45;&gt;agent -->
<g id="edge11" class="edge">
<title>code&#45;&gt;agent</title>
<path fill="none" stroke="#222222" stroke-dasharray="5,2" d="M296,-172.55C296,-196.16 296,-237 296,-237 296,-237 423.67,-237 423.67,-237"/>
<polygon fill="#222222" stroke="#222222" points="423.67,-239.8 431.67,-237 423.67,-234.2 423.67,-239.8"/>
</g>
<!-- goal -->
<g id="node9" class="node">
<title>goal</title>
<path fill="white" stroke="#222222" d="M305.6,-32.4C305.6,-32.4 266,-32.4 266,-32.4 260.6,-32.4 255.2,-27 255.2,-21.6 255.2,-21.6 255.2,-10.8 255.2,-10.8 255.2,-5.4 260.6,0 266,0 266,0 305.6,0 305.6,0 311,0 316.4,-5.4 316.4,-10.8 316.4,-10.8 316.4,-21.6 316.4,-21.6 316.4,-27 311,-32.4 305.6,-32.4"/>
<text xml:space="preserve" text-anchor="middle" x="285.8" y="-11.75" font-family="Helvetica,sans-Serif" font-size="11.00">Goal</text>
</g>
<!-- goal&#45;&gt;agent -->
<g id="edge12" class="edge">
<title>goal&#45;&gt;agent</title>
<path fill="none" stroke="#222222" stroke-dasharray="5,2" d="M316.78,-16C368.87,-16 468.4,-16 468.4,-16 468.4,-16 468.4,-205.64 468.4,-205.64"/>
<polygon fill="#222222" stroke="#222222" points="465.6,-205.64 468.4,-213.64 471.2,-205.64 465.6,-205.64"/>
</g>
<!-- steps -->
<g id="node11" class="node">
<title>steps</title>
<path fill="white" stroke="#222222" d="M852.6,-302C852.6,-302 639,-302 639,-302 633,-302 627,-296 627,-290 627,-290 627,-202.4 627,-202.4 627,-196.4 633,-190.4 639,-190.4 639,-190.4 852.6,-190.4 852.6,-190.4 858.6,-190.4 864.6,-196.4 864.6,-202.4 864.6,-202.4 864.6,-290 864.6,-290 864.6,-296 858.6,-302 852.6,-302"/>
<text xml:space="preserve" text-anchor="start" x="649.8" y="-283.75" font-family="Helvetica,sans-Serif" font-size="11.00">{name: &quot;Step 1&quot;, category: &quot;Db</text>
<text xml:space="preserve" text-anchor="start" x="649.8" y="-269.75" font-family="Helvetica,sans-Serif" font-size="11.00">interactions&quot; name: &quot;Take input from</text>
<text xml:space="preserve" text-anchor="start" x="649.8" y="-255.75" font-family="Helvetica,sans-Serif" font-size="11.00">user&quot;, details: &quot;….&quot;, evidence: {file,</text>
<text xml:space="preserve" text-anchor="start" x="649.8" y="-241.75" font-family="Helvetica,sans-Serif" font-size="11.00">fromLine, toLine}</text>
<text xml:space="preserve" text-anchor="start" x="649.8" y="-227.75" font-family="Helvetica,sans-Serif" font-size="11.00">{name: &quot;Step 2&quot;, name: &quot;Take input from</text>
<text xml:space="preserve" text-anchor="start" x="649.8" y="-213.75" font-family="Helvetica,sans-Serif" font-size="11.00">user&quot;, details: &quot;….&quot;, evidence: {file,</text>
<text xml:space="preserve" text-anchor="start" x="649.8" y="-199.75" font-family="Helvetica,sans-Serif" font-size="11.00">fromLine, toLine}</text>
</g>
<!-- agent&#45;&gt;steps -->
<g id="edge13" class="edge">
<title>agent&#45;&gt;steps</title>
<path fill="none" stroke="#222222" stroke-dasharray="5,2" d="M538.41,-246C538.41,-246 617.15,-246 617.15,-246"/>
<polygon fill="#222222" stroke="#222222" points="617.15,-248.8 625.15,-246 617.15,-243.2 617.15,-248.8"/>
</g>
<!-- evid -->
<g id="node12" class="node">
<title>evid</title>
<path fill="white" stroke="#222222" d="M1120.4,-268.52C1120.4,-268.52 1011.2,-268.52 1011.2,-268.52 1005.2,-268.52 999.2,-262.52 999.2,-256.52 999.2,-256.52 999.2,-235.88 999.2,-235.88 999.2,-229.88 1005.2,-223.88 1011.2,-223.88 1011.2,-223.88 1120.4,-223.88 1120.4,-223.88 1126.4,-223.88 1132.4,-229.88 1132.4,-235.88 1132.4,-235.88 1132.4,-256.52 1132.4,-256.52 1132.4,-262.52 1126.4,-268.52 1120.4,-268.52"/>
<text xml:space="preserve" text-anchor="middle" x="1065.8" y="-247.75" font-family="Helvetica,sans-Serif" font-size="11.00">evidence: {file, fromLine,</text>
<text xml:space="preserve" text-anchor="middle" x="1065.8" y="-235.75" font-family="Helvetica,sans-Serif" font-size="11.00">toLineal</text>
</g>
<!-- steps&#45;&gt;evid -->
<g id="edge14" class="edge">
<title>steps&#45;&gt;evid</title>
<path fill="none" stroke="#222222" stroke-dasharray="5,2" d="M864.96,-246C864.96,-246 989.53,-246 989.53,-246"/>
<polygon fill="#222222" stroke="#222222" points="989.53,-248.8 997.53,-246 989.53,-243.2 989.53,-248.8"/>
</g>
<!-- guard -->
<g id="node14" class="node">
<title>guard</title>
<path fill="white" stroke="#222222" d="M1346.4,-137.4C1346.4,-137.4 1285.2,-137.4 1285.2,-137.4 1279.8,-137.4 1274.4,-132 1274.4,-126.6 1274.4,-126.6 1274.4,-115.8 1274.4,-115.8 1274.4,-110.4 1279.8,-105 1285.2,-105 1285.2,-105 1346.4,-105 1346.4,-105 1351.8,-105 1357.2,-110.4 1357.2,-115.8 1357.2,-115.8 1357.2,-126.6 1357.2,-126.6 1357.2,-132 1351.8,-137.4 1346.4,-137.4"/>
<text xml:space="preserve" text-anchor="middle" x="1315.8" y="-116.75" font-family="Helvetica,sans-Serif" font-size="11.00">Guardrail</text>
</g>
<!-- evid&#45;&gt;guard -->
<g id="edge15" class="edge">
<title>evid&#45;&gt;guard</title>
<path fill="none" stroke="#222222" stroke-dasharray="5,2" d="M1132.59,-235C1200.13,-235 1294.6,-235 1294.6,-235 1294.6,-235 1294.6,-147.02 1294.6,-147.02"/>
<polygon fill="#222222" stroke="#222222" points="1297.4,-147.02 1294.6,-139.02 1291.8,-147.02 1297.4,-147.02"/>
</g>
<!-- ef -->
<!-- evid&#45;&gt;ef -->
<g id="edge16" class="edge">
<title>evid&#45;&gt;ef</title>
<path fill="none" stroke="#222222" stroke-dasharray="5,2" d="M1132.8,-246C1203.38,-246 1305.66,-246 1315.1,-246"/>
</g>
<!-- fitness -->
<g id="node13" class="node">
<title>fitness</title>
<path fill="white" stroke="#222222" d="M1370.4,-428.6C1370.4,-428.6 1261.2,-428.6 1261.2,-428.6 1255.2,-428.6 1249.2,-422.6 1249.2,-416.6 1249.2,-416.6 1249.2,-375.8 1249.2,-375.8 1249.2,-369.8 1255.2,-363.8 1261.2,-363.8 1261.2,-363.8 1370.4,-363.8 1370.4,-363.8 1376.4,-363.8 1382.4,-369.8 1382.4,-375.8 1382.4,-375.8 1382.4,-416.6 1382.4,-416.6 1382.4,-422.6 1376.4,-428.6 1370.4,-428.6"/>
<text xml:space="preserve" text-anchor="middle" x="1315.8" y="-409.75" font-family="Helvetica,sans-Serif" font-size="11.00">Fitness Function</text>
<text xml:space="preserve" text-anchor="middle" x="1315.8" y="-397.75" font-family="Helvetica,sans-Serif" font-size="11.00">Screen Interactions</text>
<text xml:space="preserve" text-anchor="middle" x="1315.8" y="-385.75" font-family="Helvetica,sans-Serif" font-size="11.00">Validations</text>
<text xml:space="preserve" text-anchor="middle" x="1315.8" y="-373.75" font-family="Helvetica,sans-Serif" font-size="11.00">DB interactions</text>
</g>
<!-- fw -->
<!-- fitness&#45;&gt;fw -->
<g id="edge20" class="edge">
<title>fitness&#45;&gt;fw</title>
<path fill="none" stroke="#777777" stroke-dasharray="5,2" d="M1248.98,-396C1090.64,-396 704.47,-396 686.45,-396"/>
</g>
<!-- gw -->
<!-- guard&#45;&gt;gw -->
<g id="edge18" class="edge">
<title>guard&#45;&gt;gw</title>
<path fill="none" stroke="#777777" stroke-dasharray="5,2" d="M1273.98,-121C1136.57,-121 706.61,-121 686.53,-121"/>
</g>
<!-- gw&#45;&gt;agent -->
<g id="edge19" class="edge">
<title>gw&#45;&gt;agent</title>
<path fill="none" stroke="#777777" stroke-dasharray="5,2" d="M684.99,-121C671.81,-121 503.2,-121 503.2,-121 503.2,-121 503.2,-205.74 503.2,-205.74"/>
<polygon fill="#777777" stroke="#777777" points="500.4,-205.74 503.2,-213.74 506,-205.74 500.4,-205.74"/>
</g>
<!-- fw&#45;&gt;agent -->
<g id="edge21" class="edge">
<title>fw&#45;&gt;agent</title>
<path fill="none" stroke="#777777" stroke-dasharray="5,2" d="M685.02,-396C672.48,-396 511.9,-396 511.9,-396 511.9,-396 511.9,-286.75 511.9,-286.75"/>
<polygon fill="#777777" stroke="#777777" points="514.7,-286.75 511.9,-278.75 509.1,-286.75 514.7,-286.75"/>
</g>
<!-- ef&#45;&gt;fitness -->
<g id="edge17" class="edge">
<title>ef&#45;&gt;fitness</title>
<path fill="none" stroke="#222222" stroke-dasharray="5,2" d="M1315.8,-246.87C1315.8,-246.87 1315.8,-353.88 1315.8,-353.88"/>
<polygon fill="#222222" stroke="#222222" points="1313,-353.88 1315.8,-361.88 1318.6,-353.88 1313,-353.88"/>
</g>
</g>
</svg>
